<svg xmlns="http://www.w3.org/2000/svg" width="16" height="16"><style type="text/css">.icon-canvas-transparent{opacity:0;fill:#F6F6F6;} .icon-vs-out{fill:#F6F6F6;} .icon-vs-bg{fill:#424242;} .icon-vs-fg{fill:#F0EFF1;} .icon-vs-action-green{fill:#388A34;}</style><path class="icon-canvas-transparent" d="M16 16h-16v-16h16v16z" id="canvas"/><path class="icon-vs-out" d="M14.414 9h-1.944l-1.334-2h.278l1.586-1.586v-3.828l-1.586-1.586h-9.396v2.018h-2.018v3.982h2.018v2h2.179l-.667 1h-1.944l-1.586 1.586v3.828l1.586 1.586h4.828l1.586-1.586 1.586 1.586h4.828l1.586-1.586v-3.828l-1.586-1.586zm-6.414 1.586l-1.153-1.152 1.153-1.729 1.152 1.729-1.152 1.152z" id="outline"/><path class="icon-vs-bg" d="M14 10h-2.065l-2.667-4h1.732l1-1v-3l-1-1h-5v1h5v3h-3v1h.065l2.667 4h-.732l-1 1v3l1 1h4l1-1v-3l-1-1zm0 4h-4v-3h4v3zm-7.268-8l-.732 1.099v.901h-.601l-1.333 2h-2.066l-1 1v3l1 1h4l1-1v-3l-1-1h-.732l2.667-4h-1.203zm-.732 5v3h-4v-3h4z" id="iconBg"/><path class="icon-vs-fg" d="M8 5v-2.982h-2v-.018h5v3h-3zm2 6v3h4v-3h-4zm-8 3h4v-3h-4v3z" id="iconFg"/><path class="icon-vs-action-green" d="M7 5h-2v2h-1.982v-2h-2.018v-1.982h2.018v-2.018h1.982v2.018h2v1.982z" id="colorAction"/></svg>