<svg xmlns="http://www.w3.org/2000/svg" width="16" height="16"><style type="text/css">.icon-canvas-transparent{opacity:0;fill:#F6F6F6;} .icon-vs-out{fill:#F6F6F6;} .icon-vs-bg{fill:#424242;}</style><path class="icon-canvas-transparent" d="M16 16h-16v-16h16v16z" id="canvas"/><path class="icon-vs-out" d="M14 8c.65-.635 1-1.52 1-2.5 0-1.933-1.566-3.5-3.5-3.5-1.004 0-1.902.428-2.54 1.104-.199-1.744-1.662-3.104-3.46-3.104-1.934 0-3.5 1.567-3.5 3.5 0 .98.35 1.865 1 2.5h-2v7h6v2h9v-7h-2z" id="outline"/><path class="icon-vs-bg" d="M9 5.5c0-1.38 1.119-2.5 2.5-2.5 1.379 0 2.5 1.12 2.5 2.5s-1.121 2.5-2.5 2.5c-1.381 0-2.5-1.119-2.5-2.5zm4 3.5l-1.5 2-1.5-2h-2v5h7v-5h-2zm-7.5-3c1.379 0 2.5-1.119 2.5-2.5s-1.121-2.5-2.5-2.5c-1.381 0-2.5 1.12-2.5 2.5s1.119 2.5 2.5 2.5zm3.5 1h-2l-1.5 2-1.5-2h-2v5h5v-4h2v-1z" id="iconBg"/></svg>