<svg height="16" viewBox="0 0 16 16" width="16" xmlns="http://www.w3.org/2000/svg" xmlns:xlink="http://www.w3.org/1999/xlink"><clipPath id="a"><path d="m0 16h16v-16h-16z"/></clipPath><clipPath><path d="m.00048828 16.0005h15.99951172v-16.0005h-15.99951172z"/></clipPath><clipPath id="b"><path d="m0 16h16v-16h-16z"/></clipPath><g transform="matrix(1.3333333 0 0 -1.3333333 0 16.000001)"><g clip-path="url(#a)" transform="scale(.75)"><path d="m0 0v4h3v-1.914l2-2.08599901-3-2.99999999v2.999999zm7 .00000099 2 2.00000001v4l-1-1c-.331.994-1.396 1.999999-2.5 1.999999h-6c-1.379 0-2.5-1.122-2.5-2.5v-4.5h-2v-8.999999h7v4l4-4 5 5z" fill="#212121" transform="translate(5 9)"/></g><path d="m1.5 5.2500001h2.2500001v-3.7499993h-2.2500001zm-.74999998-4.49999937h3.75000008v5.24999947h-3.75000008z" fill="#C3C3C3"/><path d="m-.41420002.00000099 1.00000001 1.00000001 1.00000001-1.00000001-1.00000001-1zm1.00010001 2.99999901-2.99999999-3 2.99999999-3 3.00000001 3z" fill="#C3C3C3" transform="matrix(.75 0 0 .75 7.810575 3.75)"/><g clip-path="url(#b)" transform="scale(.75)"><path d="m0 0h-1v3.5c0 .828.673 1.5 1.5 1.5h6c.827 0 1.5-.672 1.5-1.5v-1.499999l1 1v-1l-1-1-1-1.00000002-1 1.00000002-1 1v.999999l1-1v1.5c0 .275-.225.5-.5.5h-5c-.275 0-.5-.225-.5-.5z" fill="#72BDFF" transform="translate(4 10)"/></g><path d="m-.99999995-.58589897-.99999995-1.00000003.99999996-1 .99999996 1zm-9.00000005.99989897h3v-4.999899h-3z" fill="#262429" transform="matrix(.75 0 0 .75 9 4.939425)"/></g></svg>