<svg xmlns="http://www.w3.org/2000/svg" width="16" height="16"><style type="text/css">.icon-canvas-transparent{opacity:0;fill:#F6F6F6;} .icon-vs-out{fill:#F6F6F6;} .icon-vs-bg{fill:#424242;} .icon-vs-fg{fill:#F0EFF1;}</style><path class="icon-canvas-transparent" d="M16 16h-16v-16h16v16z" id="canvas"/><path class="icon-vs-out" d="M16 1h-16v14h2.025l.537.417.536-.417h.396l.009.072.191.783.769.099c.178.025.354.046.537.046s.359-.021.631-.059l.77-.1.104-.841h.396l.536.417.538-.417h8.025v-14z" id="outline"/><path class="icon-vs-bg" d="M1 9.099l.281.361-.281.035v-.396zm.281 3.441l-.281-.035v.396l.281-.361zm-.281-10.54v6.025l.059-.076c.257-.331.556-.63.889-.889l.052-.04v-2.02h12v8h-4.923l.34.436-.437.564h6.02v-12h-14zm0 11.974v.026h.02l-.02-.026zm4-3.974c-.552 0-1 .447-1 1s.448 1 1 1 1-.447 1-1-.448-1-1-1zm3.949 1.504c.022-.167.051-.331.051-.504l-.051-.504-1.235-.154c-.068-.285-.182-.551-.331-.795l.767-.985c-.207-.267-.445-.505-.712-.712l-.985.767c-.243-.149-.51-.262-.796-.331l-.153-1.235c-.167-.021-.331-.051-.504-.051l-.504.051-.153 1.235c-.286.069-.553.182-.796.331l-.985-.767c-.267.207-.505.445-.712.712l.768.985c-.149.244-.263.51-.331.795l-1.235.154c-.023.167-.052.331-.052.504l.051.504 1.235.154c.068.285.182.551.331.795l-.767.985c.207.268.445.506.712.713l.985-.768c.243.148.51.262.796.331l.153 1.235c.167.022.331.051.504.051l.504-.051.153-1.235c.286-.069.553-.183.796-.331l.985.768c.267-.207.505-.445.712-.713l-.768-.984c.149-.244.263-.51.331-.795l1.236-.155zm-3.949 1.496c-1.104 0-2-.896-2-2s.896-2 2-2 2 .896 2 2-.896 2-2 2z" id="iconBg"/><path class="icon-vs-fg" d="M14 5v8h-4.923l-.359-.46.354-.044.782-.191.099-.77c.026-.176.047-.351.047-.535s-.021-.359-.059-.632l-.099-.768-1.123-.14.698-.896-.476-.615c-.257-.331-.556-.63-.889-.889l-.614-.477-.897.699-.141-1.126-.874-.111c-.172-.024-.346-.045-.526-.045l-.526.045-.874.111-.14 1.126-.897-.699-.563.437v-2.02h12zm-7 6c0 1.104-.896 2-2 2s-2-.896-2-2 .896-2 2-2 2 .896 2 2zm-1 0c0-.552-.449-1-1-1s-1 .448-1 1 .449 1 1 1 1-.448 1-1z" id="iconFg"/></svg>