<svg xmlns="http://www.w3.org/2000/svg" width="16" height="16"><style type="text/css">.icon-canvas-transparent{opacity:0;fill:#F6F6F6;} .icon-vs-out{fill:#F6F6F6;} .icon-vs-bg{fill:#424242;} .icon-vs-fg{fill:#F0EFF1;}</style><path class="icon-canvas-transparent" d="M16 16h-16v-16h16v16z" id="canvas"/><path class="icon-vs-out" d="M2.01 16c-.023.021 0-13 0-13h1.99v-1h1.01c.413-1.164 1.707-2 3.01-2 1.305 0 2.578.836 2.99 2h1v1h1.99v13h-11.99z" id="outline"/><path class="icon-vs-bg" d="M11 8h-6v-1h6v1zm0 1h-6v1h6v-1zm2-5v11h-10v-11h2v-1h1.01c0-1.104.896-2 2-2 1.105 0 2 .896 2 2h.99v1h2zm-5.99-1c0 .553.459 1 1.01 1 .553 0 .99-.447.99-1s-.447-1-1-1c-.551 0-1 .447-1 1zm4.99 2h-8v9h8v-9z" id="iconBg"/><path class="icon-vs-fg" d="M6.969 2.984c0-.552.49-.984 1.041-.984.553 0 1 .447 1 1s-.447 1.031-1 1.031c-.551 0-1.041-.494-1.041-1.047zm5.031 2.016v9h-8v-9h8zm-1 4h-6v1h6v-1zm0-2h-6v1h6v-1z" id="iconFg"/></svg>