<?xml version="1.0" encoding="utf-8"?>
<!-- Generator: Adobe Illustrator 18.1.1, SVG Export Plug-In . SVG Version: 6.00 Build 0)  -->
<!DOCTYPE svg PUBLIC "-//W3C//DTD SVG 1.1//EN" "http://www.w3.org/Graphics/SVG/1.1/DTD/svg11.dtd">
<svg version="1.1" xmlns="http://www.w3.org/2000/svg" xmlns:xlink="http://www.w3.org/1999/xlink" x="0px" y="0px" width="16px"
	 height="16px" viewBox="0 0 16 16" style="enable-background:new 0 0 16 16;" xml:space="preserve">
<style type="text/css">
	.icon-canvas-transparent{opacity:0;fill:#F6F6F6;}
	.icon-vs-out{fill:#F6F6F6;}
	.icon-vs-bg{fill:#424242;}
	.icon-vs-fg{fill:#F0EFF1;}
</style>
<g id="canvas">
	<path class="icon-canvas-transparent" d="M16,16H0V0h16V16z"/>
</g>
<g id="outline">
	<path class="icon-vs-out" d="M16,8c0,4.418-3.582,8-8,8c-4.418,0-8-3.582-8-8c0-4.418,3.582-8,8-8
		C12.418,0,16,3.582,16,8z"/>
</g>
<g id="iconBg">
	<path class="icon-vs-bg" d="M15,8c0-0.08-0.01-0.157-0.012-0.236l0,0C14.862,4.008,11.786,1,8,1C4.134,1,1,4.134,1,8
		c0,0.204,0.012,0.405,0.03,0.604c0.016,0.18,0.041,0.357,0.07,0.532c0.001,0.006,0.001,0.012,0.002,0.018l0,0
		c0.489,2.942,2.807,5.258,5.75,5.745l0,0c0.007,0.001,0.014,0.002,0.021,0.003c0.174,0.028,0.349,0.053,0.526,0.068
		C7.598,14.988,7.797,15,8,15c0.231,0,0.46-0.013,0.685-0.034l0,0C12.229,14.621,15,11.635,15,8z M10.969,6.338
		c0.727-0.113,1.494-0.308,2.316-0.604C13.584,6.43,13.75,7.195,13.75,8c0,0.126-0.011,0.25-0.019,0.374
		c-1.038,0.452-1.972,0.722-2.848,0.863c0.11-0.612,0.167-1.194,0.161-1.743C11.041,7.094,11.01,6.712,10.969,6.338z M12.749,4.76
		c-0.686,0.236-1.334,0.4-1.951,0.496c-0.214-1.031-0.551-1.919-0.917-2.685C11.057,2.979,12.06,3.751,12.749,4.76z M8,13.75
		c-0.17,0-0.338-0.011-0.504-0.025c-0.503-1.116-0.888-2.225-1.128-3.306c0.523,0.052,1.066,0.086,1.626,0.092
		c0.135,0.002,0.269,0.002,0.403,0.002c0.348,0,0.699-0.01,1.054-0.027c-0.306,0.991-0.759,2.077-1.353,3.26
		C8.065,13.746,8.033,13.75,8,13.75z M8.006,9.421C7.37,9.414,6.758,9.367,6.168,9.298C6.084,8.688,6.039,8.089,6.045,7.506
		C6.049,7.119,6.076,6.75,6.112,6.391c0.603,0.068,1.23,0.113,1.882,0.12c0.135,0.001,0.269,0.003,0.403,0.003
		c0.488,0,0.982-0.016,1.487-0.055c0.038,0.34,0.066,0.686,0.07,1.047c0.006,0.577-0.068,1.202-0.209,1.869
		C9.162,9.416,8.588,9.424,8.006,9.421z M8,2.25c0.165,0,0.327,0.011,0.488,0.024C8.956,3.086,9.432,4.12,9.709,5.382
		C9.138,5.421,8.576,5.426,8.006,5.421c-0.6-0.007-1.181-0.048-1.739-0.11C6.5,4.095,6.885,3.096,7.268,2.302
		C7.508,2.271,7.751,2.25,8,2.25z M5.917,2.645c-0.29,0.723-0.556,1.554-0.732,2.508C4.493,5.033,3.86,4.881,3.282,4.718
		C3.93,3.788,4.846,3.063,5.917,2.645z M2.25,8c0-0.819,0.174-1.597,0.482-2.303c0.686,0.202,1.448,0.394,2.3,0.539
		C4.99,6.642,4.96,7.057,4.955,7.494C4.949,8.029,4.989,8.577,5.054,9.131C3.978,8.936,3.048,8.667,2.271,8.403
		C2.261,8.27,2.25,8.137,2.25,8z M2.486,9.625c0.798,0.244,1.712,0.479,2.744,0.644c0.206,1.047,0.542,2.116,0.981,3.193
		C4.422,12.877,3.021,11.439,2.486,9.625z M9.384,13.575c0.546-1.146,0.967-2.215,1.238-3.193c0.894-0.115,1.845-0.343,2.886-0.734
		C12.93,11.584,11.357,13.087,9.384,13.575z"/>
</g>
<g id="iconFg">
	<path class="icon-vs-fg" d="M10.969,6.338c0.727-0.113,1.494-0.308,2.316-0.604C13.584,6.43,13.75,7.195,13.75,8
		c0,0.126-0.011,0.25-0.019,0.374c-1.038,0.452-1.972,0.722-2.848,0.863c0.11-0.612,0.167-1.194,0.161-1.743
		C11.041,7.094,11.01,6.712,10.969,6.338z M9.881,2.571c0.366,0.766,0.703,1.653,0.917,2.685c0.617-0.096,1.265-0.26,1.951-0.496
		C12.06,3.751,11.057,2.979,9.881,2.571z M8.099,13.745c0.594-1.183,1.047-2.269,1.353-3.26c-0.354,0.017-0.706,0.027-1.054,0.027
		c-0.135,0-0.269,0-0.403-0.002c-0.56-0.006-1.103-0.04-1.626-0.092c0.24,1.081,0.625,2.19,1.128,3.306
		C7.662,13.739,7.83,13.75,8,13.75C8.033,13.75,8.065,13.746,8.099,13.745z M9.7,9.375c0.141-0.667,0.261-1.292,0.255-1.869
		c-0.004-0.361-0.032-0.707-0.07-1.047C9.38,6.498,8.888,6.514,8.4,6.514c-0.135,0-0.265-0.002-0.4-0.003
		c-0.651-0.007-1.285-0.052-1.888-0.12C6.076,6.75,6.049,7.119,6.045,7.506C6.039,8.089,6.016,8.641,6.1,9.25
		C6.69,9.319,7.364,9.414,8,9.421C8.582,9.424,9.116,9.416,9.7,9.375z M7.268,2.302C6.885,3.096,6.434,4.095,6.2,5.311
		C6.759,5.373,7.4,5.414,8,5.421c0.57,0.005,1.129,0,1.7-0.039C9.423,4.12,8.956,3.086,8.488,2.274C8.327,2.261,8.165,2.25,8,2.25
		C7.751,2.25,7.508,2.271,7.268,2.302z M3.282,4.718C3.86,4.881,4.493,5.033,5.185,5.153c0.177-0.954,0.442-1.785,0.732-2.508
		C4.846,3.063,3.93,3.788,3.282,4.718z M2.271,8.403c0.777,0.264,1.707,0.532,2.783,0.728C4.989,8.577,4.949,8.029,4.955,7.494
		C4.96,7.057,4.99,6.642,5.032,6.236c-0.852-0.146-1.614-0.337-2.3-0.539C2.424,6.403,2.25,7.181,2.25,8
		C2.25,8.137,2.261,8.27,2.271,8.403z M6.212,13.463c-0.439-1.077-0.775-2.147-0.981-3.193c-1.032-0.166-1.946-0.4-2.744-0.644
		C3.021,11.439,4.422,12.877,6.212,13.463z M13.508,9.647c-1.041,0.392-1.992,0.619-2.886,0.734
		c-0.271,0.979-0.692,2.047-1.238,3.193C11.357,13.087,12.93,11.584,13.508,9.647z"/>
</g>
</svg>
